<svg xmlns="http://www.w3.org/2000/svg" width="500" height="500" viewBox="0 0 375 375"><defs><clipPath id="6ca7e2bf04"><path d="M265.137 0 375 109.863v155.274L265.137 375H109.863L0 265.137V109.863L109.863 0Zm0 0"/></clipPath><clipPath id="2c77c820c6"><path d="M12.879 12.879H362.12V362.12H12.88Zm0 0"/></clipPath><clipPath id="3d94df7d66"><path d="M259.805 12.879 362.12 115.195v144.61L259.805 362.12h-144.61L12.88 259.805v-144.61L115.195 12.88Zm0 0"/></clipPath><clipPath id="8793709a64"><path d="M12.879 12.879h349.23v349.23H12.88Zm0 0"/></clipPath><clipPath id="fdb3fe29d8"><path d="M259.797 12.879 362.109 115.19v144.606L259.797 362.109H115.19L12.88 259.797V115.19L115.19 12.88Zm0 0"/></clipPath></defs><g clip-path="url(#6ca7e2bf04)"><path fill="#b91c1c" d="M-37.5-37.5h450v450h-450z"/></g><g clip-path="url(#2c77c820c6)"><g clip-path="url(#3d94df7d66)"><path fill="#b91c1c" d="M12.879 12.879H362.12V362.12H12.88Zm0 0"/></g></g><g clip-path="url(#8793709a64)"><g clip-path="url(#fdb3fe29d8)"><path fill="none" stroke="#fff" stroke-width="25.5" d="M259.797 12.879 362.109 115.19v144.606L259.797 362.109H115.19L12.88 259.797V115.19L115.19 12.88Zm0 0"/></g></g><path fill="#fff" d="m114.477 267.442 53.421-79.859-53.203-79.75h34.235l38.625 61.563 38.625-61.563h34.234l-53.203 79.75 53.422 79.86h-34.219l-39.094-60.657-38.625 60.656Zm0 0"/></svg>