<svg xmlns="http://www.w3.org/2000/svg" width="500" height="500" viewBox="0 0 375 375"><defs><clipPath id="30562604dd"><path d="M187.5 0C83.945 0 0 83.945 0 187.5S83.945 375 187.5 375 375 291.055 375 187.5 291.055 0 187.5 0m0 0"/></clipPath><clipPath id="971fcd5f72"><path d="M18.57 18.57h337.86v337.86H18.57Zm0 0"/></clipPath><clipPath id="e891a7f57e"><path d="M187.5 18.57c-93.297 0-168.93 75.633-168.93 168.93S94.203 356.43 187.5 356.43s168.93-75.633 168.93-168.93S280.797 18.57 187.5 18.57m0 0"/></clipPath><clipPath id="19a9ddc130"><path d="M18.57 18.57h337.5v337.5H18.57Zm0 0"/></clipPath><clipPath id="5e650d5bd0"><path d="M187.496 18.57C94.2 18.57 18.57 94.2 18.57 187.496c0 93.297 75.63 168.926 168.926 168.926 93.297 0 168.926-75.629 168.926-168.926S280.793 18.57 187.496 18.57m0 0"/></clipPath></defs><g clip-path="url(#30562604dd)"><path fill="#1d4ed8" d="M-37.5-37.5h450v450h-450z"/></g><g clip-path="url(#971fcd5f72)"><g clip-path="url(#e891a7f57e)"><path fill="#1d4ed8" d="M18.57 18.57h337.86v337.86H18.57Zm0 0"/></g></g><g clip-path="url(#19a9ddc130)"><g clip-path="url(#5e650d5bd0)"><path fill="none" stroke="#fff" stroke-width="25.5" d="M187.496 18.57C94.2 18.57 18.57 94.2 18.57 187.496c0 93.297 75.63 168.926 168.926 168.926 93.297 0 168.926-75.629 168.926-168.926S280.793 18.57 187.496 18.57Zm0 0"/></g></g><path fill="#fff" d="M196.122 107.056q-7.938 0-13.797-5.86c-3.906-3.913-5.86-8.515-5.86-13.796q0-7.936 5.86-13.797 5.858-5.86 13.797-5.86 7.922 0 13.781 5.86c3.914 3.906 5.875 8.508 5.875 13.797 0 5.281-1.96 9.883-5.875 13.797q-5.86 5.86-13.781 5.86m-14.828 198.61c-5.98 0-9.891-2.415-11.735-7.235-1.836-4.832-2.75-11.27-2.75-19.312q-.002-19.313 3.266-37.922a2076 2076 0 0 1 6.562-35.516q3.282-16.906 3.282-31.39 0-3.797-.36-8.266-.346-4.482-1.718-6.906-5.52 3.456-14.313 11.39-8.784 7.922-13.953 17.578-2.424-2.42-2.422-6.562-.001-5.859 4.656-12.75 4.654-6.891 12.407-13.266 7.763-6.389 16.734-10.53 8.964-4.14 17.578-4.142 7.934 0 10.172 3.797 2.25 3.797 2.25 9.657 0 8.626-2.25 22.25a1236 1236 0 0 1-5.172 29.125 745 745 0 0 0-5.172 31.03q-2.236 15.519-2.234 28.282c0 4.367.226 8.445.687 12.234q.687 5.689 1.719 9.485 8.624-3.797 16.375-11.203 7.764-7.406 11.563-13.97 2.062 3.113 2.062 6.563 0 5.52-4.828 12.063-4.83 6.55-12.078 12.422-7.236 5.859-15.344 9.469c-5.398 2.414-10.39 3.625-14.984 3.625m0 0"/></svg>