<?xml version="1.0" encoding="utf-8"?>
<!-- Generator: Adobe Illustrator 25.2.2, SVG Export Plug-In . SVG Version: 6.00 Build 0)  -->
<svg version="1.1" xmlns="http://www.w3.org/2000/svg" xmlns:xlink="http://www.w3.org/1999/xlink" x="0px" y="0px"
	 viewBox="0 0 1460 1200.2" style="enable-background:new 0 0 1460 1200.2;" xml:space="preserve">
<style type="text/css">
	.st0{fill:none;stroke:#A02319;stroke-width:32;stroke-linecap:round;stroke-linejoin:round;}
	.st1{fill:none;stroke:#C82823;stroke-width:32;stroke-linecap:round;stroke-miterlimit:10;}
	.st2{fill:none;stroke:#A02319;stroke-width:32;stroke-linecap:round;stroke-miterlimit:10;}
	.st3{fill:none;stroke:#E68C00;stroke-width:32;stroke-linecap:round;stroke-miterlimit:10;}
	.st4{fill:none;stroke:#FAD23C;stroke-width:32;stroke-linecap:round;stroke-miterlimit:10;}
	.st5{fill:none;stroke:#E68C00;stroke-width:32;stroke-linecap:round;stroke-linejoin:round;}
	.st6{fill:none;stroke:#C82823;stroke-width:32;stroke-linecap:round;stroke-linejoin:round;}
	.st7{fill:none;stroke:#FAD23C;stroke-width:32;stroke-linecap:round;stroke-linejoin:round;}
	.st8{display:none;}
	.st9{display:inline;}
	.st10{fill:#878787;}
	.st11{font-family:'Lato-Regular';}
	.st12{font-size:16px;}
	.st13{font-family:'Lato-Black';}
	.st14{clip-path:url(#SVGID_2_);fill:#CF661C;}
</style>
<g id="Livello_1">
	<line class="st0" x1="422.4" y1="479.5" x2="325.1" y2="479.5"/>
	<line class="st1" x1="435.6" y1="357.9" x2="413.3" y2="357.9"/>
	<line class="st1" x1="876.4" y1="479.5" x2="566.5" y2="479.5"/>
	<line class="st2" x1="791" y1="421.9" x2="634.4" y2="421.9"/>
	<line class="st1" x1="459.9" y1="537.1" x2="357.3" y2="537.1"/>
	<line class="st1" x1="801.3" y1="300.5" x2="685.9" y2="300.5"/>
	<line class="st3" x1="648.6" y1="537.1" x2="516.5" y2="537.1"/>
	<line class="st4" x1="1035.9" y1="537.1" x2="719.8" y2="537.1"/>
	<g>
		<line class="st4" x1="1431.1" y1="421.9" x2="1089.1" y2="421.9"/>
	</g>
	<line class="st4" x1="1008.3" y1="239.7" x2="843.7" y2="239.7"/>
	<line class="st2" x1="1126" y1="300.5" x2="974.5" y2="300.5"/>
	<line class="st3" x1="1094.8" y1="357.9" x2="1024.7" y2="357.9"/>
	<line class="st3" x1="1349.9" y1="479.5" x2="1262.8" y2="479.5"/>
	<line class="st3" x1="242" y1="479.5" x2="134.6" y2="479.5"/>
	<line class="st1" x1="1225.4" y1="239.7" x2="1103.5" y2="239.7"/>
	<line class="st1" x1="511.6" y1="300.5" x2="363.7" y2="300.5"/>
	<line class="st2" x1="407.2" y1="421.9" x2="201" y2="421.9"/>
	<g>
		<line class="st2" x1="840.3" y1="179" x2="634.1" y2="179"/>
	</g>
	<line class="st4" x1="543.2" y1="421.9" x2="497.5" y2="421.9"/>
	<g>
		<line class="st1" x1="332.7" y1="1140.5" x2="287" y2="1140.5"/>
	</g>
	<line class="st2" x1="1346.1" y1="239.7" x2="1300.4" y2="239.7"/>
	<line class="st2" x1="626.4" y1="300.5" x2="580.4" y2="300.5"/>
	<line class="st5" x1="329.9" y1="357.9" x2="136.4" y2="357.9"/>
	<line class="st5" x1="778" y1="660.3" x2="584.5" y2="660.3"/>
	<g>
		<line class="st5" x1="358.3" y1="179" x2="156.9" y2="179"/>
	</g>
	<line class="st6" x1="1306.7" y1="537.1" x2="1113.2" y2="537.1"/>
	<g>
		<line class="st5" x1="232" y1="660.3" x2="38.6" y2="660.3"/>
	</g>
	<line class="st5" x1="301.4" y1="780.2" x2="125.4" y2="780.2"/>
	<line class="st6" x1="857.4" y1="600.9" x2="663.9" y2="600.9"/>
	<line class="st6" x1="1364" y1="357.9" x2="1170.6" y2="357.9"/>
	<g>
		<line class="st6" x1="115.7" y1="842.2" x2="-41.6" y2="842.2"/>
		<line class="st0" x1="377.6" y1="842.2" x2="181.4" y2="842.2"/>
		<line class="st6" x1="505.2" y1="842.2" x2="459.5" y2="842.2"/>
		<line class="st7" x1="685.4" y1="842.2" x2="591.7" y2="842.2"/>
	</g>
	<line class="st0" x1="602" y1="899.7" x2="556.3" y2="899.7"/>
	<line class="st6" x1="488.6" y1="899.7" x2="347.6" y2="899.7"/>
	<line class="st7" x1="285.1" y1="899.7" x2="128.5" y2="899.7"/>
	<g>
		<path class="st6" d="M-131.5,60.9"/>
		<path class="st6" d="M25.9,60.9"/>
		<line class="st0" x1="287.7" y1="60.9" x2="91.5" y2="60.9"/>
		<line class="st7" x1="595.6" y1="60.9" x2="501.8" y2="60.9"/>
	</g>
	<line class="st0" x1="512.2" y1="118.3" x2="466.4" y2="118.3"/>
	<line class="st6" x1="398.7" y1="118.3" x2="257.7" y2="118.3"/>
	<line class="st7" x1="195.2" y1="118.3" x2="38.6" y2="118.3"/>
	<line class="st0" x1="1153.3" y1="479.5" x2="959.8" y2="479.5"/>
	<g>
		<line class="st6" x1="127.8" y1="421.9" x2="-142.1" y2="421.9"/>
	</g>
	<line class="st0" x1="1369.9" y1="660.3" x2="1100.1" y2="660.3"/>
	<line class="st5" x1="574" y1="600.9" x2="304.2" y2="600.9"/>
	<g>
		<line class="st0" x1="67.1" y1="357.9" x2="-30.2" y2="357.9"/>
	</g>
	<line class="st0" x1="515.2" y1="660.3" x2="417.9" y2="660.3"/>
	<line class="st6" x1="222" y1="601" x2="124.7" y2="601"/>
	<line class="st7" x1="329.7" y1="660.3" x2="306" y2="660.3"/>
	<g>
		<line class="st7" x1="64.7" y1="479.5" x2="41.1" y2="479.5"/>
	</g>
	<g>
		<line class="st2" x1="855.3" y1="719" x2="649.1" y2="719"/>
		<line class="st1" x1="991.3" y1="719" x2="945.6" y2="719"/>
		<line class="st6" x1="1532.1" y1="719" x2="1247.1" y2="719"/>
		<line class="st6" x1="575.9" y1="719" x2="306" y2="719"/>
		<line class="st7" x1="1183.7" y1="719" x2="1068.3" y2="719"/>
	</g>
	<line class="st5" x1="978.7" y1="421.9" x2="863.3" y2="421.9"/>
	<line class="st1" x1="1087.6" y1="117.9" x2="777.7" y2="117.9"/>
	<line class="st2" x1="1002.2" y1="60.2" x2="845.6" y2="60.2"/>
	<g>
		<line class="st4" x1="1431.1" y1="60.2" x2="1300.3" y2="60.2"/>
	</g>
	<line class="st0" x1="1364.4" y1="117.9" x2="1171" y2="117.9"/>
	<line class="st5" x1="1189.9" y1="60.2" x2="1074.4" y2="60.2"/>
	<g>
		<line class="st1" x1="1400.4" y1="1015.7" x2="1237.4" y2="1015.7"/>
	</g>
	<line class="st3" x1="1292.5" y1="957.1" x2="1185" y2="957.1"/>
	<line class="st5" x1="1308.6" y1="1140.5" x2="1203.4" y2="1140.5"/>
	<line class="st6" x1="728.5" y1="957.1" x2="527" y2="957.1"/>
	<line class="st6" x1="1202.2" y1="900.1" x2="932.4" y2="900.1"/>
	<line class="st6" x1="877.5" y1="1015.7" x2="780.2" y2="1015.7"/>
	<line class="st0" x1="1298.6" y1="1080.3" x2="1117.4" y2="1080.3"/>
	<g>
		<line class="st5" x1="1404.3" y1="780.2" x2="1210.8" y2="780.2"/>
		<line class="st6" x1="765.1" y1="780.2" x2="719.3" y2="780.2"/>
		<g>
			<line class="st0" x1="1141.5" y1="780.2" x2="1044.2" y2="780.2"/>
		</g>
		<line class="st7" x1="972" y1="780.2" x2="823.6" y2="780.2"/>
	</g>
	<line class="st7" x1="1406.2" y1="1140.5" x2="1382.6" y2="1140.5"/>
	<line class="st5" x1="1068.3" y1="1015.7" x2="972" y2="1015.7"/>
	<line class="st7" x1="1115.2" y1="957.1" x2="1091.6" y2="957.1"/>
	<line class="st5" x1="852.9" y1="900.1" x2="737.5" y2="900.1"/>
	<line class="st4" x1="223.4" y1="239.7" x2="75.5" y2="239.7"/>
	<line class="st2" x1="301.1" y1="1080.3" x2="95" y2="1080.3"/>
	<line class="st5" x1="349.1" y1="1015.7" x2="227" y2="1015.7"/>
	<line class="st7" x1="492.4" y1="1080.3" x2="377" y2="1080.3"/>
	<line class="st2" x1="1122.9" y1="1140.5" x2="1015.4" y2="1140.5"/>
</g>
<g id="Livello_2" class="st8">
	<g class="st9">
		<text transform="matrix(1 0 0 1 671.7175 1179.1852)"><tspan x="0" y="0" class="st10 st11 st12">p</tspan><tspan x="9" y="0" class="st10 st11 st12">ow</tspan><tspan x="30.4" y="0" class="st10 st11 st12">e</tspan><tspan x="38.9" y="0" class="st10 st11 st12">r</tspan><tspan x="44.4" y="0" class="st10 st11 st12">ed </tspan><tspan x="65.9" y="0" class="st10 st11 st12">b</tspan><tspan x="74.6" y="0" class="st10 st11 st12">y</tspan><tspan x="82.5" y="0" class="st10 st11 st12"> </tspan></text>
		<text transform="matrix(1 0 0 1 758.2448 1179.1852)"><tspan x="0" y="0" class="st10 st13 st12">B</tspan><tspan x="10.6" y="0" class="st10 st13 st12">an</tspan><tspan x="28" y="0" class="st10 st13 st12">c</tspan><tspan x="35.7" y="0" class="st10 st13 st12">olini </tspan><tspan x="70.5" y="0" class="st10 st13 st12">S</tspan><tspan x="79" y="0" class="st10 st13 st12">ymbol</tspan></text>
		<g>
			<defs>
				<rect id="SVGID_1_" x="555.1" y="1138.3" width="101.2" height="82.8"/>
			</defs>
			<clipPath id="SVGID_2_">
				<use xlink:href="#SVGID_1_"  style="overflow:visible;"/>
			</clipPath>
			<path class="st14" d="M564.9,1176.5h16.3c0.2,0,0.5,0,0.7-0.1h12.2c1.8,0,3.3-1.5,3.3-3.3c0-0.1,0-0.3,0-0.4
				c-2.2-0.3-4.1-1.4-5.2-2.9h-14.3c-0.2,0-0.5,0-0.7,0.1h-12.3c-1.8,0-3.3,1.5-3.3,3.3C561.6,1175,563.1,1176.5,564.9,1176.5"/>
			<path class="st14" d="M596.1,1183.4H592c-1.8,0-3.3,1.5-3.3,3.3c0,1.8,1.5,3.3,3.3,3.3h4.1c1.8,0,3.3-1.5,3.3-3.3
				C599.4,1184.9,597.9,1183.4,596.1,1183.4"/>
			<path class="st14" d="M570.7,1163H587c1.8,0,3.3-1.5,3.3-3.3s-1.5-3.3-3.3-3.3h-16.2c-1.8,0-3.3,1.5-3.3,3.3
				S568.9,1163,570.7,1163"/>
			<path class="st14" d="M583.9,1149.5h4.1c1.8,0,3.3-1.5,3.3-3.3s-1.5-3.3-3.3-3.3h-4.1c-1.8,0-3.3,1.5-3.3,3.3
				S582.1,1149.5,583.9,1149.5"/>
			<path class="st14" d="M578.5,1183.4h-16.2c-1.8,0-3.3,1.5-3.3,3.3c0,1.8,1.5,3.3,3.3,3.3h16.2c1.8,0,3.3-1.5,3.3-3.3
				C581.8,1184.9,580.3,1183.4,578.5,1183.4"/>
			<path class="st14" d="M626.4,1139.6c-3.9,0-7.5,0.8-10.8,2.3c-0.7,0.3-1.4,0.7-2.1,1h-15.1c-1.8,0-3.3,1.5-3.3,3.3
				c0,1.8,1.5,3.3,3.3,3.3h7.2c-1.7,2.1-3.1,4.4-4.1,6.9h-0.2c0,0,0.1,0,0.1,0c0.8,0.2,1.4,0.6,2,1c0.2-0.3,0.4-0.5,0.6-0.7
				c0.4-0.3,0.8-0.4,1.3-0.4h5.6c2.3,0,4.2,0.7,5.5,1.9c2-3.3,5.5-5.2,9.8-5.2c3.6,0,6.6,1.2,8.7,3.6c0.1,0.1,0.2,0.3,0.4,0.4
				c0.4-0.5,1-0.8,1.7-0.8h10.7c1.2,0,2.3,1,2.3,2.3v3.1c0,1.2-1,2.3-2.3,2.3h-1.2v6.4c0,1.2-1,2.3-2.3,2.3h-3.8
				c-1.2,0-2.3-1-2.3-2.3v-6.4h-0.4c0,0.2,0,0.4,0,0.6c0,7-4.6,11.6-11.5,11.6c-5.7,0-9.8-3.1-11.1-8.2c-1,0.6-2.3,0.9-3.8,0.9v1.4
				c0,1.2-1,2.3-2.3,2.3h-3.8c-0.8,0-1.4-0.4-1.9-1c-0.8,0.5-1.9,0.9-3,1.1c5,16.8,25.9,44.3,25.9,44.3c0,0,0,0,0,0
				c0.4-0.5,26.9-35.7,26.9-50.5C653.3,1151.7,641.3,1139.6,626.4,1139.6"/>
			<path class="st14" d="M603.9,1166.6c0-2.5-2.3-3.1-4.2-3.6c0,0,0,0,0,0c-1.3-0.3-2.5-0.6-2.5-1.3c0-0.4,0.4-0.7,1.2-0.7
				c0.4,0,0.7,0.1,1,0.2c0.2,0.1,0.4,0.3,0.5,0.5c0,0.1,0.1,0.2,0.1,0.3h3.6c-0.2-1.6-1.1-2.9-2.9-3.4c-0.6-0.2-1.3-0.3-2.1-0.3
				c-1.3,0-2.5,0.3-3.4,0.8c-1,0.6-1.7,1.6-1.7,3c0,3.5,4.1,3.5,5.9,4.2c0.5,0.2,0.8,0.4,0.8,0.8c0,0.4-0.3,0.6-0.7,0.8
				c-0.2,0.1-0.5,0.1-0.8,0.1c-0.4,0-0.8-0.1-1.1-0.3c-0.3-0.2-0.6-0.5-0.6-0.9h-3.7c0.1,2.1,2.1,3.9,5.2,3.9c0.5,0,1,0,1.5-0.1
				C602.3,1170.1,603.9,1168.8,603.9,1166.6"/>
			<path class="st14" d="M609.2,1166.7h1.9c3.4,0,4.9-1.6,4.9-4.1c0-2.4-1.6-3.9-5-3.9h-5.4h-0.2v2.7v9h3.8V1166.7z M609.2,1161.3
				h1.1c0.8,0,2,0.1,2,1.2c0,1-0.6,1.4-1.5,1.4h-1.6V1161.3z"/>
			<path class="st14" d="M626.4,1173.9c5.2,0,9.3-3.4,9.3-9.4c0-4.7-3-9.2-9.3-9.2c-5.5,0-9.2,3.6-9.2,9.1
				C617.1,1170.5,620.8,1173.9,626.4,1173.9 M626.3,1159.7c2.5-0.1,3.5,2.5,3.5,4.9c0,2.9-1,5.1-3.5,5.1c-2.8,0-3.5-2.8-3.5-5.1
				C622.9,1162.3,623.7,1159.7,626.3,1159.7"/>
			<polygon class="st14" points="644.4,1170.3 644.4,1161.7 647.8,1161.7 647.8,1158.6 637.1,1158.6 637.1,1161.7 640.5,1161.7 
				640.5,1170.3 			"/>
		</g>
	</g>
</g>
</svg>
