<svg xmlns="http://www.w3.org/2000/svg" xmlns:xlink="http://www.w3.org/1999/xlink" xml:space="preserve" id="svg1" width="409.748" height="409.748" viewBox="0 0 108.413 108.413"><defs id="defs1"><linearGradient id="linearGradient27"><stop id="stop27" offset="0" style="stop-color:red;stop-opacity:1"/><stop id="stop28" offset="1" style="stop-color:#ffca00;stop-opacity:.96862745"/></linearGradient><linearGradient xlink:href="#linearGradient27" id="linearGradient28" x1="35.002" x2="143.414" y1="192.355" y2="83.942" gradientUnits="userSpaceOnUse"/></defs><g id="layer1" transform="translate(-35.002 -83.942)"><rect id="rect26" width="108.413" height="108.413" x="35.002" y="83.942" rx="30" ry="30" style="fill:url(#linearGradient28);fill-opacity:1;fill-rule:evenodd;stroke:#ff9b01;stroke-width:0;stroke-opacity:1;paint-order:stroke markers fill"/><g id="g1" style="stroke-width:.892424" transform="matrix(1.08335 0 0 1.15901 -13.02 -26.51)"><path id="path1" d="M93.826 176.603c-.169-.034-1.837-.443-3.708-.909s-6.894-1.707-11.162-2.759a2463 2463 0 0 1-8.036-1.986 1.26 1.26 0 0 1-.84-.72c-.135-.297-.142-.67-.144-7.586l-.002-7.275-1.586-.388c-.873-.214-2.732-.663-4.131-.998-1.664-.399-2.62-.664-2.765-.767-.451-.321-.673-1.178-.44-1.7.05-.114 1.348-1.542 2.882-3.173l4.473-4.751c.925-.983 1.682-1.813 1.682-1.846 0-.032-2.013-2.197-4.473-4.811s-4.513-4.845-4.564-4.96c-.124-.278-.122-.806.005-1.108.137-.329.59-.717.947-.812a377 377 0 0 1 3.04-.735 4957 4957 0 0 0 16.208-3.91c3.114-.76 3.63-.84 4.028-.63.113.059 1.108 1.071 2.211 2.249a1906 1906 0 0 0 4.454 4.731l2.447 2.591.578-.603c.73-.762 7.41-7.89 7.899-8.429.533-.588 1.164-.826 1.676-.632.098.037 1.949.488 4.115 1.003 2.165.515 5.554 1.325 7.53 1.802l7.11 1.713c1.934.466 3.612.885 3.727.931.44.176.82.811.821 1.372 0 .11-.077.339-.171.51-.146.264-2.64 2.954-7.92 8.542-.595.63-1.074 1.174-1.062 1.207.011.034 2.015 2.18 4.453 4.768s4.493 4.832 4.565 4.985c.232.491.124 1.107-.27 1.528-.244.262-.464.356-1.276.544-.4.093-2.137.51-3.86.927l-3.307.798-.172.04v7.212c0 5.18-.025 7.285-.087 7.472a1.6 1.6 0 0 1-.287.477c-.211.23-.693.509-.877.509-.06 0-4.2 1.011-9.197 2.248-12.941 3.202-13.804 3.411-14.017 3.4a4 4 0 0 1-.497-.071m-.115-14.064c0-6.938-.027-12.614-.059-12.614s-1.13 1.144-2.44 2.542c-5.288 5.648-5.758 6.135-6.045 6.267-.478.22.5.423-8.925-1.857-2.27-.549-4.327-1.045-4.568-1.102l-.44-.103v13.955l.975.24c6.052 1.49 19.206 4.741 20.126 4.974a30 30 0 0 0 1.28.306c.076.005.096-2.563.096-12.608m12.576 9.853c5.93-1.467 10.857-2.684 10.951-2.706l.171-.04.02-6.992c.018-6.187.006-6.99-.094-6.958-.063.019-1.698.416-3.632.883-1.934.466-4.72 1.14-6.192 1.497-3.653.887-3.407.84-3.789.725-.186-.056-.463-.233-.65-.416-.18-.175-2.039-2.141-4.13-4.37-2.092-2.229-3.833-4.063-3.868-4.077s-.063 5.656-.063 12.601v12.627l.248-.054c.137-.03 5.1-1.253 11.028-2.72m-20.964-15.644c.885-.919 7.626-8.102 8.034-8.56.163-.184.284-.345.268-.36-.03-.026-1.291-.333-7.062-1.721l-9.387-2.26-5.87-1.413-.512.554a2343 2343 0 0 0-8.041 8.564c-.267.285-.47.533-.45.552s1.89.48 4.158 1.025c9.94 2.387 16.933 4.072 17.464 4.209.316.08.598.149.627.151s.376-.33.771-.74m20.235.401c.78-.189 3.86-.93 6.845-1.648 12.242-2.942 13.984-3.364 14.015-3.396.019-.018-.237-.321-.568-.673l-4.112-4.38-3.921-4.178-.413-.437-6.82 1.638c-3.75.9-8.299 1.997-10.107 2.437s-3.76.91-4.339 1.047c-.578.137-1.05.278-1.05.313 0 .06 1.972 2.177 6.918 7.426 1.135 1.204 2.08 2.191 2.1 2.193.019.002.672-.152 1.452-.342m-9.338-11.001c.954-.227 3.678-.885 6.054-1.461a4296 4296 0 0 1 11.257-2.72c.41-.097.746-.196.746-.22 0-.042-2.28-.6-11.889-2.913a3300 3300 0 0 1-5.734-1.386c-1.219-.297-2.268-.538-2.331-.536s-1.388.313-2.944.691-4.05.982-5.543 1.34c-1.492.36-4.434 1.07-6.536 1.58-2.103.508-4.072.982-4.377 1.054-.305.07-.554.148-.554.17s.61.186 1.357.362c.746.177 4.831 1.16 9.078 2.188l8.525 2.06c.441.106.882.196.98.199s.958-.18 1.911-.408m-23.175-5.507c1.616-.385 15.137-3.644 18.927-4.562.914-.222 1.663-.423 1.663-.447 0-.043-2.176-2.373-6.494-6.955a220 220 0 0 1-2.417-2.588c-.068-.09-.257-.065-1.223.168-2.153.52-10.698 2.575-15.93 3.832-2.876.692-5.247 1.274-5.267 1.295-.046.045-.21-.132 4.76 5.153 2.23 2.371 4.083 4.358 4.117 4.415s.074.105.09.105.815-.187 1.774-.416m44.726.017c.668-.727 2.633-2.823 4.61-4.915 3.59-3.802 4.074-4.323 4.04-4.356-.019-.019-.892-.24-1.942-.491a14930 14930 0 0 1-17.845-4.296l-2.558-.62-.225.256c-.123.141-.763.824-1.42 1.518-.66.694-2.26 2.397-3.559 3.784a573 573 0 0 1-3.073 3.264c-.392.408-.712.773-.712.812 0 .081 1.221.382 13.259 3.264 4.832 1.157 8.803 2.12 8.824 2.141.102.102.267.003.601-.361" style="fill:#fff;fill-opacity:1;stroke-width:0;stroke-dasharray:none"/><path id="path2" d="M94.237 147.397c-.19-.076-.536-.44-.83-.87-.138-.202-.98-1.552-1.87-3.001-6.428-10.455-9.515-15.547-9.95-16.413-.459-.916-.982-2.465-1.178-3.493-.478-2.499-.335-4.879.435-7.235 1.186-3.633 3.713-6.577 7.144-8.326a14.6 14.6 0 0 1 4.316-1.388c1.018-.165 3.183-.165 4.201 0a14.6 14.6 0 0 1 5.902 2.32c3.031 2.03 5.227 5.32 5.959 8.928.623 3.072.293 6.038-.986 8.869-.359.792-3.667 6.345-7.571 12.703l-3.23 5.263c-.787 1.285-1.265 1.992-1.542 2.284-.398.42-.519.473-.8.36m1.266-20.98a6.44 6.44 0 0 0 4.949-4.23c.294-.862.38-1.48.33-2.368-.098-1.758-.749-3.161-2.028-4.375-1.216-1.153-2.656-1.723-4.35-1.723-1.69 0-3.132.57-4.345 1.72-.963.913-1.534 1.855-1.868 3.078-.13.48-.154.72-.151 1.567.003.873.026 1.084.183 1.657a6.43 6.43 0 0 0 3.963 4.37 6.3 6.3 0 0 0 3.317.303" style="fill:#d30000;fill-opacity:1;stroke-width:.892424"/><path id="rect2" d="M158.632 137.745h3.539v1.387h-3.539z" style="fill:#fff;fill-opacity:1;fill-rule:evenodd;stroke:#ff9b01;stroke-width:0;stroke-dasharray:none;paint-order:stroke markers fill" transform="matrix(.98806 .15405 -.46962 .88287 0 0)"/><path id="rect3" d="M120.628 170.946h3.167v1.222h-3.167z" style="fill:#fff;fill-opacity:1;fill-rule:evenodd;stroke:#ff9b01;stroke-width:0;stroke-dasharray:none;paint-order:stroke markers fill" transform="rotate(8.335)scale(.9449 1)skewY(-18.126)"/></g></g></svg>