<svg xmlns="http://www.w3.org/2000/svg" xmlns:xlink="http://www.w3.org/1999/xlink" xml:space="preserve" id="svg1" width="409.748" height="409.748" viewBox="0 0 108.413 108.413"><defs id="defs1"><linearGradient id="linearGradient27"><stop id="stop27" offset="0" style="stop-color:red;stop-opacity:1"/><stop id="stop28" offset="1" style="stop-color:#ffca00;stop-opacity:.96862745"/></linearGradient><linearGradient xlink:href="#linearGradient27" id="linearGradient28" x1="35.002" x2="143.414" y1="192.355" y2="83.942" gradientUnits="userSpaceOnUse"/></defs><g id="layer1" transform="translate(-35.002 -83.942)"><rect id="rect26" width="108.413" height="108.413" x="35.002" y="83.942" rx="30" ry="30" style="fill:url(#linearGradient28);fill-opacity:1;fill-rule:evenodd;stroke:#ff9b01;stroke-width:0;stroke-opacity:1;paint-order:stroke markers fill"/><g id="g1" style="stroke-width:1.10252" transform="translate(9.37 14.003)scale(.90701)"><path id="path272" d="M103.624 105.014c-.27.002-.79.209-1.004.4a2.5 2.5 0 0 0-.313.395l-.181.277-.018 18.064-.018 18.064h-3.047v-9.75c0-10.412-.004-10.52-.345-11.948-1.398-5.861-6.243-10.128-12.213-10.755-1.515-.16-19.836-.16-20.462-.003l-.002-.004-19.984 3.575 18.852 2.16v6.078l-17.36 3.103 17.36 1.99v6.523l-17.36 3.103 14.275 1.636-.016 4.905-.019 5.726-.63.126c-1.587.315-3.197 1.068-4.528 2.117-2.206 1.737-3.742 4.446-4.053 7.144-.37 3.213.552 6.199 2.657 8.602 1.688 1.926 4.174 3.26 6.696 3.592.824.108 2.933.031 3.671-.134.932-.21 1.79-.515 2.637-.939 2.065-1.033 3.824-2.775 4.827-4.784.504-1.01.91-2.207 1.026-3.029l.047-.329h18.828v.214c0 .117.064.468.142.78.904 3.589 3.509 6.46 6.975 7.686 1.343.475 1.946.568 3.655.564 1.32-.003 1.612-.025 2.182-.158 3.368-.785 6.026-2.86 7.515-5.865.44-.89.882-2.203.972-2.892l.043-.329 7.183-.002c7.08-.002 7.188-.003 7.495-.143.647-.293.9-.703.9-1.457 0-.569-.168-.945-.55-1.225-.505-.373-.225-.36-7.9-.36h-7.115l-.117-.597c-.261-1.329-.848-2.71-1.682-3.957-.57-.854-2.02-2.296-2.864-2.852-1.214-.798-2.805-1.463-4-1.673l-.502-.088-.018-21.17-.018-21.17-.154-.312c-.258-.521-.88-.903-1.465-.9zm9.34.76c-1.961 0-3.686 1.068-4.532 2.806-.536 1.103-.53 1.026-.507 6.443l.02 4.78.189.556c.62 1.83 2.225 3.176 4.083 3.424.241.032 2.715.053 5.496.046 5.705-.015 5.342.017 6.547-.574.548-.269.757-.422 1.25-.918.49-.49.649-.709.917-1.252.538-1.096.535-1.045.535-6.262 0-4.846-.013-5.061-.328-5.862-.764-1.94-2.613-3.187-4.727-3.187h-.557l-.003 4.14-.003 4.139-1.878 1.49a123 123 0 0 1-1.964 1.54c-.056.033-.792-.513-2.034-1.507l-1.947-1.56v-8.242zm2.29.553v6.927l1.084.87c.596.478 1.106.86 1.132.85s.535-.41 1.132-.886l1.085-.866-.017-3.43-.017-3.429-2.2-.018zm-47.247 6.508 9.197.025c9.138.025 9.2.026 9.889.175 2.276.495 4.009 1.425 5.576 2.993 1.563 1.563 2.494 3.26 3.002 5.472.15.658.15.664.17 10.686l.018 10.028h-2.393l-2.91-2.91c-2.148-2.147-2.999-2.954-3.252-3.082l-.342-.174H68.007v-11.606zm44.87 16.355c-.846 0-1.356.1-1.977.386-1.351.623-2.296 1.666-2.771 3.059l-.184.539-.02 4.745c-.023 5.4-.023 5.392.503 6.478.506 1.043 1.244 1.779 2.297 2.294.347.17.83.351 1.073.404.354.077 1.48.097 5.603.1 5.817.004 5.683.015 6.749-.507 1.377-.674 2.299-1.8 2.674-3.27.13-.505.137-.783.137-5.222 0-4.448-.007-4.717-.137-5.237-.233-.926-.636-1.636-1.32-2.324-.515-.519-.69-.645-1.318-.948-.817-.396-1.263-.497-2.19-.497h-.646v8.223l-1.91 1.518c-1.049.834-1.938 1.527-1.974 1.54s-.938-.673-2.004-1.524l-1.939-1.548v-8.209zm2.377.554.004 3.447.004 3.446 1.052.845c.58.464 1.08.845 1.112.848s.555-.39 1.16-.874l1.101-.878v-6.834h-2.217zm-50.295 9.491H85.98l3.015 3.002c2.568 2.557 3.058 3.014 3.3 3.083.206.058 1.624.08 5.04.08h4.755v3.16l-.537.094c-1.12.195-2.648.81-3.729 1.498-1.69 1.076-3.119 2.7-3.994 4.536-.443.931-.884 2.341-.884 2.83v.214H74.119l-.046-.329c-.174-1.222-.844-2.861-1.707-4.174-.532-.809-1.996-2.292-2.8-2.836-1.322-.897-2.958-1.574-4.282-1.772l-.325-.05v-4.668z" style="fill:#000;stroke-width:1.10252"/><path id="path268" d="M103.624 103.562c-.27.002-.79.209-1.004.4a2.5 2.5 0 0 0-.313.395l-.181.277-.018 18.064-.018 18.064h-3.047v-9.75c0-10.412-.004-10.52-.345-11.948-1.398-5.861-6.243-10.129-12.213-10.755-1.515-.16-19.836-.16-20.462-.003l-.002-.004-19.984 3.575 18.852 2.16v6.078l-17.36 3.103 17.36 1.99v6.523l-17.36 3.103 14.275 1.635-.016 4.906-.019 5.726-.63.125c-1.587.316-3.197 1.069-4.528 2.118-2.206 1.737-3.742 4.445-4.053 7.144-.37 3.213.552 6.199 2.657 8.602 1.688 1.926 4.174 3.26 6.696 3.592.824.108 2.933.031 3.671-.134.932-.21 1.79-.515 2.637-.939 2.066-1.033 3.824-2.775 4.827-4.784.504-1.01.91-2.207 1.027-3.029l.046-.33h18.828v.215c0 .117.064.468.142.779a10.96 10.96 0 0 0 6.975 7.687c1.343.475 1.946.568 3.655.564 1.32-.003 1.613-.025 2.182-.158 3.368-.785 6.027-2.86 7.515-5.865.44-.89.882-2.204.972-2.892l.043-.33 7.183-.001c7.08-.002 7.188-.003 7.495-.143.647-.293.9-.703.9-1.457 0-.569-.168-.945-.55-1.225-.505-.373-.225-.36-7.899-.36h-7.116l-.117-.597c-.261-1.329-.848-2.71-1.682-3.958-.57-.853-2.02-2.295-2.864-2.85-1.214-.799-2.805-1.465-4-1.674l-.502-.088-.018-21.17-.018-21.17-.154-.312c-.258-.521-.88-.903-1.465-.9zm9.34.76c-1.961 0-3.686 1.068-4.532 2.806-.536 1.103-.53 1.026-.507 6.443l.02 4.78.189.556c.62 1.83 2.225 3.176 4.083 3.424.241.032 2.715.053 5.496.046 5.705-.015 5.343.017 6.547-.574.548-.269.757-.422 1.25-.918.49-.49.65-.709.917-1.252.539-1.096.535-1.045.535-6.262 0-4.846-.012-5.061-.328-5.862-.764-1.94-2.613-3.187-4.727-3.187h-.557l-.003 4.14-.003 4.139-1.878 1.49a116 116 0 0 1-1.964 1.54c-.056.033-.792-.513-2.034-1.507l-1.947-1.56v-8.242zm2.29.553v6.927l1.084.87c.597.478 1.106.86 1.132.85s.535-.41 1.132-.886l1.085-.866-.017-3.43-.017-3.429-2.2-.018zm-47.247 6.508 9.197.025c9.138.025 9.2.026 9.889.175 2.276.495 4.009 1.425 5.576 2.993 1.563 1.563 2.494 3.26 3.002 5.472.15.658.15.664.17 10.686l.018 10.028h-2.393l-2.91-2.91c-2.148-2.147-2.999-2.954-3.252-3.082l-.342-.174H68.007V122.99zm44.87 16.355c-.846 0-1.356.1-1.976.386-1.352.623-2.297 1.666-2.772 3.059l-.184.539-.02 4.745c-.023 5.4-.023 5.392.503 6.477.507 1.044 1.244 1.78 2.297 2.295.347.17.83.351 1.073.404.354.077 1.48.097 5.603.1 5.817.005 5.683.015 6.749-.507 1.377-.674 2.299-1.8 2.674-3.27.13-.505.137-.783.137-5.222 0-4.448-.007-4.717-.137-5.237-.233-.926-.636-1.636-1.32-2.324-.515-.519-.69-.645-1.318-.948-.817-.396-1.263-.497-2.19-.497h-.646v8.223l-1.91 1.518c-1.049.834-1.938 1.527-1.974 1.54s-.938-.673-2.004-1.524l-1.939-1.548v-8.209zm2.377.554.004 3.447.004 3.446 1.052.844c.58.465 1.08.846 1.112.849s.555-.39 1.16-.874l1.101-.878v-6.834h-2.217zm-50.295 9.491H85.98l3.015 3.002c2.568 2.557 3.058 3.014 3.3 3.083.206.058 1.624.08 5.04.08h4.755v3.16l-.537.094c-1.12.195-2.648.809-3.729 1.498-1.69 1.076-3.118 2.7-3.994 4.536-.443.931-.884 2.341-.884 2.83v.214H74.119l-.046-.329c-.174-1.222-.844-2.861-1.707-4.174-.532-.809-1.996-2.292-2.8-2.836-1.322-.897-2.958-1.574-4.282-1.773l-.325-.048v-4.669z" style="fill:#fff;stroke-width:1.10252"/></g></g></svg>