<svg xmlns="http://www.w3.org/2000/svg" width="500" height="500" viewBox="0 0 375 375"><defs><clipPath id="59a10ac27a"><path d="M17.18 32.695H360V337.5H17.18Zm0 0"/></clipPath><clipPath id="664b27481e"><path d="m207.043 43.574 149.352 261.367a21.77 21.77 0 0 1-.07 21.72A21.76 21.76 0 0 1 337.5 337.5H39.375a21.75 21.75 0 0 1-18.82-10.84 21.76 21.76 0 0 1-.075-21.719L169.832 43.574a21.43 21.43 0 0 1 37.211 0m0 0"/></clipPath></defs><g clip-path="url(#59a10ac27a)"><g clip-path="url(#664b27481e)"><path fill="#d97706" d="M1.875 11.016h373.672V337.5H1.875Zm0 0"/></g></g><path fill="#fff" d="M205.301 232.437v-113.25q0-3.686-2.11-5.797t-5.796-2.11h-17.906q-3.69 0-5.797 2.11-2.11 2.11-2.11 5.797v109.562c0 2.461.703 4.39 2.11 5.797q2.107 2.11 5.797 2.11h17.906q3.686 0 5.797-2.11zm0 59v-21.328q0-3.687-2.11-5.797t-5.796-2.11h-17.906q-3.69 0-5.797 2.11-2.11 2.11-2.11 5.797v17.64c0 2.461.703 4.39 2.11 5.797q2.107 2.11 5.797 2.11h17.906q3.686 0 5.797-2.11zm0 0"/></svg>